<svg height="512" viewBox="0 0 60 60" width="512" xmlns="http://www.w3.org/2000/svg"><g id="001---Beaming-Cow" fill="none"><g id="Icons" transform="translate(1 1)"><path id="Shape" d="m58 51h-58l29-51z" fill="#cad9fc"/><path id="Shape" d="m55 51h-55l27.5-48.36z" fill="#e8edfc"/><path id="Shape" d="m58 51c0 3.87-13 7-29 7h-1.51c-15.32-.2-27.49-3.25-27.49-7 0-2.93 7.44-5.43 18-6.48l20-.17c11.61.91 20 3.54 20 6.65z" fill="#cad9fc"/><path id="Shape" d="m55 51c0 3.75-12.17 6.8-27.49 7-15.34-.2-27.51-3.25-27.51-7 0-2.93 7.44-5.43 18-6.48l17.28-.15c11.47.93 19.72 3.55 19.72 6.63z" fill="#e8edfc"/><path id="Shape" d="m21.34 34.29c0 1.71-.87 1.71-.87 2.57 0 .5.31.71.55 1.15-.91-.61-2.37 1-4 1s-3.11-1.6-4-1c.24-.44.55-.65.55-1.15 0-.86-.87-.86-.87-2.57.0005538-.4009234.146189-.7881.41-1.09-.5477411-.629248-.929329-1.3855485-1.11-2.2-.0540132-.3814376.1407353-.7549535.4843979-.9290457.3436625-.1740922.7600187-.1101491 1.0356021.1590457l1.23 1.1c.78.68 1.47.35 2.24.35s1.46.33 2.24-.35l1.23-1.1c.2726615-.287136.70096-.3623332 1.0551253-.1852506.3541653.1770827.5509866.5648398.4848747.9552506-.1707119.7990809-.5346613 1.544147-1.06 2.17.267082.3111189.4095673.7100778.4 1.12z" fill="#7facfa"/><path id="Shape" d="m21.34 39.43c0 2.43-3.46 2.81-5.85 2.46-.1 0-.44-.08-.65-.14-1.36-.37-2.18-1.14-2.18-2.32-.0190212-.4987364.0985425-.9931956.34-1.43 2.4995546-1.3351136 5.5004454-1.3351136 8 0 .245906.4350709.3637739.9308094.34 1.43z" fill="#e8edfc"/><path id="Shape" d="m38 38v12c0 1.1045695-.8954305 2-2 2s-2-.8954305-2-2v-4.92c.0019641-.2520358-.1376827-.4838501-.3614034-.5999316s-.4936594-.0967879-.6985966.0499316c-2.998953 1.9692561-6.881047 1.9692561-9.88 0-.2049372-.1467195-.4748759-.1660131-.6985966-.0499316s-.3633675.3478958-.3614034.5999316v4.92c0 1.1045695-.8954305 2-2 2s-2-.8954305-2-2v-8c1.53-.16 3.17-.75 3.32-2.21.19-1.85-.85-2-.85-2.88s1.05-1.07.85-2.86h6.68c-2 0-3 2-3 4s4 3 5 3 3-1 1-3 2-4 2-4h1c2.1897592-.0001711 3.972628 1.7604119 4 3.95z" fill="#f5f5f5"/><path id="Shape" d="m38 38v12c-.0053205.829438-.5220598 1.5695143-1.2988851 1.8602689s-1.6525013.0718395-2.2011149-.5502689c.3192922-.3620202.496881-.827303.5-1.31v-12c-.0025061-1.6355674-1.0005034-3.1048413-2.52-3.71l.52-.29h1c2.209139 0 4 1.790861 4 4z" fill="#cad9fc"/><path id="Shape" d="m31 38c2 2 0 3-1 3s-5-1-5-3 1-4 3-4h5s-4 2-2 4z" fill="#7facfa"/></g><path id="Shape" d="m27.49 58h3c-15.32-.2-27.49-3.25-27.49-7 .06468349-.745069.45194114-1.4245966 1.06-1.86 5.57-9.8 21.05-37 26.44-46.5l-1.5-2.64-27.94 49.14c-.60805886.4354034-.99531651 1.114931-1.06 1.86 0 3.75 12.17 6.8 27.49 7z" fill="#fff" transform="translate(1 1)"/><g id="Outline" fill="#428dff"><path id="Shape" d="m40 44.43v-5.16c1.1 1.36 2.25 2.73 4 2.73 1.657175-.0998642 3.137411-1.0701989 3.89-2.55.2013504-.4835272-.0045141-1.0404963-.4719378-1.2768341s-1.0380149-.0719586-1.3080622.3768341c-.4217393.8012192-1.2108484 1.343498-2.11 1.45-2.18 0-3.57-6-9-6h-11.72c.3400128-.5636604.5770389-1.1833144.7-1.83.1113521-.7950524-.2890195-1.5742919-1.0002199-1.9467186s-1.5797277-.257658-2.1697801.2867186c-1.29 1.15-1.38 1.33-1.82 1.28-1.73-.25-2.09.24-2.57-.18l-1.19-1.06c-.5783728-.5852451-1.4677291-.7316991-2.2032224-.3628139-.7354934.3688853-1.1499641 1.1692711-1.0267776 1.9828139.1396291.7437185.4288035 1.4513451.85 2.08-.1352034.3162412-.2065709.6560862-.21 1-.0430987.8420451.215764 1.6718243.73 2.34.18.26.16.22 0 .45-.5141479.6720646-.7728607 1.5049072-.73 2.35 0 2.24 2 3.57 5.34 3.57v.62c-5.2.62-17.98 2.54-17.98 7.42 0 10.62 60 10.66 60 0 0-5.26-14.28-7.06-20-7.57zm-8.87-8.43c-.4722178.5124974-.7208037 1.1920071-.6907774 1.8882411.0300263.6962339.3361903 1.3518191.8507774 1.8217589.54.53.59.84.56.9-.216056.2435133-.5244939.3850319-.85.39-1 0-4-1-4-2s.42-3 2-3zm-16.47 4.43c-.0481288-.4228995.0742271-.8475467.34-1.18.6796748-.8020377.6796748-1.9779623 0-2.78-.2729137-.3293953-.4025632-.7543575-.36-1.18.0030079-.1699353.0668759-.3331536.18-.46.3033172-.3690019.3033172-.9009981 0-1.27-.3313603-.4013878-.5886999-.8585043-.76-1.35 1 .9 1.74 1.76 3.21 1.56.4707483-.069959.9492517-.069959 1.42 0 1.47.21 2.21-.68 3.21-1.57-.1688203.4956452-.4263404.9564708-.76 1.36-.3033172.3690019-.3033172.9009981 0 1.27.1131241.1268464.1769921.2900647.18.46.0537448.4201856-.0613333.8445362-.32 1.18-.6796748.8020377-.6796748 1.9779623 0 2.78.2729137.3293953.4025632.7543575.36 1.18-.02 1.46-2.58 1.57-3.36 1.57s-3.34-.11-3.34-1.57zm8.68 0c.0171006-.9377896-.2902262-1.8527049-.87-2.59.4281573-.5319156.7107264-1.1659732.82-1.84h2.45c-.4958941.9215238-.7504664 1.9535739-.74 3 0 3 4.94 4 6 4 1.1338329.0136563 2.1784813-.6131327 2.7-1.62.28-.68.33-1.76-1-3.09-.3-.3-.28-.47-.26-.54.09-.58 1.06-1.34 1.8-1.75h.76c1.6568542 0 3 1.3431458 3 3v12c0 .5522847-.4477153 1-1 1s-1-.4477153-1-1v-4.92c.0002204-.6255194-.3491416-1.1987152-.9052124-1.4851759-.5560708-.2864608-1.225603-.2381498-1.7347876.1251759-2.6512253 1.7233489-6.0687747 1.7233489-8.72 0-.5091846-.3633257-1.1787168-.4116367-1.7347876-.1251759-.5560708.2864607-.9054328.8596565-.9052124 1.4851759v4.92c0 .5522847-.4477153 1-1 1s-1-.4477153-1-1v-7.2c2.12-.44 3.34-1.63 3.34-3.37zm6.66 17.57c-17.35 0-28-3.49-28-6 0-1.42 4.39-4.07 16-5.36v4.36c0 1.6568542 1.3431458 3 3 3s3-1.3431458 3-3v-4.31c3.1010293 1.7599395 6.8989707 1.7599395 10 0v4.31c0 1.6568542 1.3431458 3 3 3s3-1.3431458 3-3v-4.56c12.39 1.11 18 3.88 18 5.56 0 2.51-10.65 6-28 6z"/><path id="Shape" d="m4.51 45.83c.47797918.2713883 1.08539152.1061364 1.36-.37l5-8.79c.1327334-.2317414.1672561-.5069478.0958754-.7642939-.0713807-.2573462-.2427335-.4754483-.4758754-.6057061-.4805947-.269731-1.0888284-.0997834-1.36.38l-5 8.79c-.26973103.4805947-.09978339 1.0888284.38 1.36z"/><path id="Shape" d="m15.45 49.11c-.4916536-.2469243-1.0904244-.050313-1.34.44l-2 4c-.1559692.3095182-.1405453.6777279.0407631.9731178.1813083.29539.5026437.4758333.8492369.4768822.3765582-.0011413.7205498-.2137203.89-.55l2-4c.2469243-.4916536.050313-1.0904244-.44-1.34z"/><path id="Shape" d="m45.89 49.55c-.2700473-.4487927-.8406385-.6131719-1.3080622-.3768341s-.6732882.7933069-.4719378 1.2768341l2 4c.1694502.3362797.5134418.5488587.89.55.3465932-.0010489.6679286-.1814922.8492369-.4768822.1813084-.2953899.1967323-.6635996.0407631-.9731178z"/><path id="Shape" d="m25.24 27.91-.21.85c-.1087346.5260968.2176311 1.0441035.7391219 1.1731322.5214908.1290286 1.051749-.1770299 1.2008781-.6931322l.32-1.24c2.31.05 4.55.05 7.9-.08l.87 2.45c.1140821.345673.4069886.6020514.764724.6693559.3577355.0673044.7237872-.0650973.9556925-.3456761.2319054-.2805788.2930294-.6650108.1595835-1.0036798l-.66-1.86c2-.1 4.31-.27 6.52-.52l10.35 18.18c.2761424.4804877.8895123.6461423 1.37.37.4804877-.2761424.6461424-.8895123.37-1.37l-9.95-17.49c4.92-.7 9.06-1.91 9.06-4s-4.69-3.76-13.93-4.55l-3-5.22c2.75-.6 4.9-1.61 4.9-3.23 0-2.62-5.4-3.52-8.91-3.82-3.45-6.18-3.16-5.67-3.36-5.87-.0644962-.06613809-.1347759-.12637786-.21-.18l-.3-.1c-.1258761-.02001395-.2541239-.02001395-.38 0-.62.12-.48.13-3.9 6.15-3.51.3-8.91 1.2-8.91 3.82 0 1.62 2.15 2.63 4.9 3.23l-3 5.22c-9.21.79-13.9 2.32-13.9 4.55 0 3.68 12.89 4.65 20.24 4.91zm27.69-4.91c-.59.61-3.27 1.49-8 2.14l-2.6-4.57c7.35.74 10.05 1.92 10.6 2.43zm-11.93-13c-.32.42-1.67 1-3.9 1.41l-1.79-3.09c3.61.45 5.32 1.27 5.69 1.68zm-11-7 5 8.71c-3.2901818.36-6.6098182.36-9.9 0zm-11 7c.34-.41 2-1.23 5.66-1.68l-1.76 3.09c-2.2-.41-3.55-.99-3.9-1.41zm17 3.6 6.71 11.79c-1.81.2-3.85.35-6.14.46l-3.63-10.19c-.1984283-.5035862-.7615185-.7578837-1.2705156-.5737784-.5089971.1841054-.7791195.7397776-.6094844 1.2537784l3.42 9.59c-2.57.08-4.55.08-6.69.05l1.21-4.74c.0857438-.3572656-.0256247-.7331364-.2921539-.9860254-.2665292-.2528891-.647727-.3443766-1-.2400001-.352273.1043766-.6221024.3887599-.7078461.7460255l-1.29 5.18c-3.25-.1-6.06-.29-8.46-.55l6.75-11.79c3.9825586.5282632 8.0174414.5282632 12 0zm-18.29 7-2.6 4.57c-4.78-.65-7.46-1.53-8-2.14.51-.54 3.21-1.72 10.61-2.46z"/></g></g></svg>